<svg xmlns="http://www.w3.org/2000/svg" width="75" viewBox="0 0 75 75" height="75" version="1.0"><defs><clipPath id="a"><path d="M 13.390625 19 L 61.390625 19 L 61.390625 55.703125 L 13.390625 55.703125 Z M 13.390625 19"/></clipPath></defs><path d="M 25.796875 39.738281 C 25.632812 42.835938 28.039062 45.527344 31.148438 45.722656 C 34.257812 45.519531 36.660156 42.832031 36.484375 39.738281 C 36.660156 36.644531 34.257812 33.945312 31.148438 33.730469 C 28.035156 33.9375 25.632812 36.636719 25.796875 39.738281 Z M 32.792969 39.738281 C 32.792969 40.984375 32.035156 42.046875 31.148438 42.046875 C 30.261719 42.046875 29.488281 40.984375 29.488281 39.738281 C 29.488281 38.488281 30.246094 37.40625 31.148438 37.40625 C 32.058594 37.40625 32.792969 38.464844 32.792969 39.738281"/><path d="M 43.265625 33.730469 C 40.15625 33.945312 37.753906 36.644531 37.925781 39.738281 C 37.753906 42.832031 40.15625 45.519531 43.265625 45.722656 C 46.371094 45.527344 48.78125 42.835938 48.613281 39.738281 C 48.78125 36.636719 46.378906 33.9375 43.265625 33.730469 Z M 43.265625 42.046875 C 42.378906 42.046875 41.621094 40.984375 41.621094 39.738281 C 41.621094 38.488281 42.378906 37.40625 43.265625 37.40625 C 44.152344 37.40625 44.921875 38.464844 44.921875 39.738281 C 44.921875 41.007812 44.164062 42.046875 43.265625 42.046875"/><g clip-path="url(#a)"><path d="M 56.828125 27.097656 L 56.699219 26.933594 C 56.699219 26.933594 56.699219 26.804688 56.699219 26.746094 C 53.496094 22.871094 49.078125 20.1875 44.152344 19.125 C 43.976562 19.074219 43.8125 19.054688 43.632812 19.054688 C 42.621094 19.054688 41.785156 19.878906 41.785156 20.890625 C 41.785156 21.75 42.40625 22.511719 43.265625 22.683594 C 47.332031 23.554688 51.003906 25.75 53.691406 28.914062 C 56.179688 34.597656 57.484375 40.734375 57.515625 46.941406 C 54.941406 49.324219 51.738281 50.933594 48.285156 51.570312 L 48.285156 50.632812 C 50.5625 49.753906 52.695312 48.550781 54.613281 47.050781 C 55.054688 46.699219 55.316406 46.167969 55.316406 45.609375 C 55.316406 44.59375 54.476562 43.761719 53.460938 43.761719 C 53.042969 43.761719 52.640625 43.90625 52.308594 44.164062 C 47.972656 47.4375 42.644531 49.125 37.207031 48.9375 C 31.820312 49.089844 26.535156 47.410156 22.234375 44.164062 C 21.902344 43.90625 21.5 43.761719 21.082031 43.761719 C 20.066406 43.761719 19.226562 44.59375 19.226562 45.609375 C 19.226562 46.167969 19.488281 46.699219 19.925781 47.050781 C 21.839844 48.542969 23.957031 49.753906 26.222656 50.632812 L 26.222656 51.570312 C 22.769531 50.933594 19.558594 49.324219 16.992188 46.941406 C 17.035156 40.734375 18.347656 34.597656 20.851562 28.914062 C 23.539062 25.75 27.210938 23.554688 31.277344 22.683594 C 32.070312 22.460938 32.613281 21.738281 32.613281 20.917969 C 32.613281 19.914062 31.785156 19.082031 30.765625 19.082031 C 30.644531 19.082031 30.519531 19.097656 30.390625 19.125 C 25.464844 20.1875 21.046875 22.871094 17.84375 26.746094 C 14.632812 30.621094 17.84375 26.875 17.84375 26.933594 L 17.714844 27.097656 C 14.128906 34.449219 13.726562 41.152344 13.335938 47.558594 C 13.300781 48.089844 13.496094 48.609375 13.871094 48.980469 C 17.621094 52.785156 22.632812 55.109375 27.976562 55.519531 C 28.457031 55.519531 28.925781 55.324219 29.265625 54.988281 C 29.621094 54.644531 29.820312 54.167969 29.820312 53.679688 L 29.820312 51.84375 C 34.683594 52.976562 39.730469 52.976562 44.589844 51.84375 L 44.589844 53.679688 C 44.589844 54.167969 44.792969 54.644531 45.144531 54.988281 C 45.484375 55.324219 45.953125 55.519531 46.4375 55.519531 C 51.832031 55.175781 56.914062 52.878906 60.722656 49.066406 C 61.097656 48.699219 61.292969 48.183594 61.265625 47.652344 C 60.816406 41.152344 60.414062 34.519531 56.828125 27.097656"/></g><path d="M 51.03125 29.28125 C 51.167969 29.023438 51.238281 28.726562 51.238281 28.433594 C 51.238281 27.75 50.859375 27.113281 50.238281 26.804688 C 46.175781 24.875 41.707031 23.925781 37.207031 24.046875 C 32.707031 23.925781 28.234375 24.875 24.175781 26.804688 C 23.554688 27.113281 23.171875 27.75 23.171875 28.433594 C 23.171875 28.726562 23.246094 29.023438 23.382812 29.28125 C 23.851562 30.175781 24.976562 30.523438 25.871094 30.054688 C 29.410156 28.40625 33.296875 27.609375 37.207031 27.722656 C 41.113281 27.609375 45.003906 28.40625 48.542969 30.054688 C 48.800781 30.191406 49.089844 30.269531 49.394531 30.277344 C 50.078125 30.277344 50.714844 29.890625 51.03125 29.28125"/></svg>