<svg xmlns="http://www.w3.org/2000/svg" width="75" viewBox="0 0 75 75" height="75" version="1.0"><defs><clipPath id="a"><path d="M 8.25 8.25 L 66.75 8.25 L 66.75 66.75 L 8.25 66.75 Z M 8.25 8.25"/></clipPath></defs><g clip-path="url(#a)"><path fill="#010101" d="M 37.488281 13.523438 C 45.292969 13.523438 46.214844 13.550781 49.304688 13.691406 C 52.152344 13.820312 53.703125 14.292969 54.738281 14.703125 C 56.097656 15.230469 57.074219 15.871094 58.097656 16.894531 C 59.125 17.921875 59.75 18.894531 60.289062 20.253906 C 60.6875 21.277344 61.160156 22.832031 61.300781 25.6875 C 61.445312 28.777344 61.46875 29.699219 61.46875 37.507812 C 61.46875 45.3125 61.445312 46.234375 61.300781 49.324219 C 61.175781 52.167969 60.699219 53.722656 60.289062 54.757812 C 59.765625 56.117188 59.125 57.09375 58.097656 58.117188 C 57.074219 59.144531 56.097656 59.769531 54.738281 60.308594 C 53.714844 60.707031 52.164062 61.179688 49.304688 61.320312 C 46.214844 61.460938 45.292969 61.488281 37.488281 61.488281 C 29.679688 61.488281 28.757812 61.460938 25.667969 61.320312 C 22.824219 61.195312 21.273438 60.71875 20.234375 60.308594 C 18.875 59.785156 17.902344 59.144531 16.875 58.117188 C 15.851562 57.09375 15.222656 56.117188 14.683594 54.757812 C 14.289062 53.734375 13.8125 52.183594 13.671875 49.324219 C 13.53125 46.234375 13.503906 45.3125 13.503906 37.507812 C 13.503906 29.699219 13.53125 28.777344 13.671875 25.6875 C 13.800781 22.84375 14.273438 21.292969 14.683594 20.253906 C 15.210938 18.894531 15.851562 17.921875 16.875 16.894531 C 17.902344 15.871094 18.875 15.242188 20.234375 14.703125 C 21.261719 14.304688 22.8125 13.832031 25.667969 13.691406 C 28.757812 13.550781 29.679688 13.523438 37.488281 13.523438 M 37.488281 8.257812 C 29.539062 8.257812 28.554688 8.292969 25.425781 8.4375 C 22.3125 8.578125 20.183594 9.078125 18.324219 9.792969 C 16.402344 10.539062 14.773438 11.539062 13.144531 13.164062 C 11.53125 14.792969 10.53125 16.421875 9.789062 18.34375 C 9.070312 20.203125 8.570312 22.332031 8.429688 25.445312 C 8.289062 28.558594 8.25 29.558594 8.25 37.492188 C 8.25 45.441406 8.289062 46.425781 8.429688 49.554688 C 8.570312 52.667969 9.070312 54.796875 9.789062 56.65625 C 10.53125 58.578125 11.53125 60.207031 13.160156 61.835938 C 14.785156 63.460938 16.414062 64.460938 18.335938 65.207031 C 20.195312 65.921875 22.324219 66.421875 25.4375 66.5625 C 28.554688 66.707031 29.554688 66.742188 37.5 66.742188 C 45.445312 66.742188 46.433594 66.707031 49.5625 66.5625 C 52.675781 66.421875 54.804688 65.921875 56.664062 65.207031 C 58.585938 64.460938 60.214844 63.460938 61.839844 61.835938 C 63.46875 60.207031 64.46875 58.578125 65.210938 56.65625 C 65.929688 54.796875 66.429688 52.667969 66.570312 49.554688 C 66.710938 46.441406 66.75 45.441406 66.75 37.492188 C 66.75 29.546875 66.710938 28.558594 66.570312 25.433594 C 66.429688 22.316406 65.929688 20.191406 65.210938 18.332031 C 64.46875 16.410156 63.46875 14.78125 61.839844 13.152344 C 60.214844 11.523438 58.585938 10.523438 56.664062 9.78125 C 54.804688 9.0625 52.675781 8.5625 49.5625 8.421875 C 46.433594 8.292969 45.433594 8.257812 37.488281 8.257812"/></g><path fill="#010101" d="M 37.488281 22.484375 C 29.195312 22.484375 22.476562 29.199219 22.476562 37.492188 C 22.476562 45.785156 29.207031 52.515625 37.5 52.515625 C 45.792969 52.515625 52.523438 45.800781 52.523438 37.492188 C 52.507812 29.199219 45.78125 22.484375 37.488281 22.484375 M 37.488281 47.246094 C 32.105469 47.246094 27.746094 42.890625 27.746094 37.507812 C 27.746094 32.121094 32.105469 27.765625 37.488281 27.765625 C 42.871094 27.765625 47.230469 32.121094 47.230469 37.507812 C 47.242188 42.878906 42.871094 47.246094 37.488281 47.246094"/><path fill="#010101" d="M 56.609375 21.894531 C 56.609375 23.828125 55.035156 25.40625 53.097656 25.40625 C 51.164062 25.40625 49.585938 23.828125 49.585938 21.894531 C 49.585938 19.957031 51.164062 18.382812 53.097656 18.382812 C 55.035156 18.382812 56.609375 19.945312 56.609375 21.894531"/></svg>