<svg xmlns="http://www.w3.org/2000/svg" width="75" viewBox="0 0 75 75" height="75" version="1.0"><defs><clipPath id="a"><path d="M 7.5 52 L 62.25 52 L 62.25 58.902344 L 7.5 58.902344 Z M 7.5 52"/></clipPath><clipPath id="b"><path d="M 7.5 16.191406 L 62.25 16.191406 L 62.25 23 L 7.5 23 Z M 7.5 16.191406"/></clipPath><clipPath id="c"><path d="M 7.5 34 L 62.25 34 L 62.25 41 L 7.5 41 Z M 7.5 34"/></clipPath></defs><g clip-path="url(#a)"><path fill="#FFF" d="M 59.207031 52.792969 L 10.542969 52.792969 C 8.867188 52.792969 7.5 54.179688 7.5 55.847656 C 7.5 57.53125 8.867188 58.902344 10.542969 58.902344 L 59.207031 58.902344 C 60.871094 58.902344 62.25 57.53125 62.25 55.847656 C 62.25 54.179688 60.871094 52.792969 59.207031 52.792969"/></g><g clip-path="url(#b)"><path fill="#FFF" d="M 10.542969 22.257812 L 59.207031 22.257812 C 60.871094 22.257812 62.25 20.875 62.25 19.207031 C 62.25 17.535156 60.871094 16.152344 59.207031 16.152344 L 10.542969 16.152344 C 8.867188 16.152344 7.5 17.535156 7.5 19.207031 C 7.5 20.875 8.867188 22.257812 10.542969 22.257812"/></g><g clip-path="url(#c)"><path fill="#FFF" d="M 59.207031 34.472656 L 10.542969 34.472656 C 8.867188 34.472656 7.5 35.855469 7.5 37.527344 C 7.5 39.195312 8.867188 40.582031 10.542969 40.582031 L 59.207031 40.582031 C 60.871094 40.582031 62.25 39.195312 62.25 37.527344 C 62.25 35.855469 60.871094 34.472656 59.207031 34.472656"/></g></svg>