<svg xmlns="http://www.w3.org/2000/svg" width="75" viewBox="0 0 75 75" height="75" version="1.0"><defs><clipPath id="a"><path d="M 24 7.5 L 50 7.5 L 50 24 L 24 24 Z M 24 7.5"/></clipPath><clipPath id="b"><path d="M 11.128906 25 L 63.628906 25 L 63.628906 69.71875 L 11.128906 69.71875 Z M 11.128906 25"/></clipPath></defs><g clip-path="url(#a)"><path fill="#FFF" d="M 31.71875 23.765625 C 35.492188 23.300781 39.265625 23.300781 42.964844 23.765625 L 49.742188 14.453125 C 50.046875 13.910156 49.816406 12.976562 48.894531 12.667969 L 45.351562 11.269531 L 42.964844 16.003906 C 42.808594 16.316406 42.347656 16.78125 41.652344 16.46875 C 41.191406 16.238281 41.039062 15.617188 41.269531 15.152344 L 44.351562 9.175781 C 44.582031 8.632812 43.964844 7.46875 42.578125 7.46875 L 32.105469 7.46875 C 30.71875 7.46875 30.101562 8.476562 30.332031 9.097656 L 33.566406 15.074219 C 33.800781 15.539062 33.644531 16.160156 33.183594 16.394531 C 32.875 16.546875 32.183594 16.546875 31.875 16.003906 L 29.332031 11.269531 L 25.789062 12.746094 C 25.097656 13.054688 24.558594 13.832031 24.941406 14.53125 Z M 31.71875 23.765625"/></g><g clip-path="url(#b)"><path fill="#FFF" d="M 62.988281 55.589844 C 60.90625 39.136719 44.351562 26.328125 43.039062 25.785156 C 42.425781 25.472656 39.882812 25.398438 37.417969 25.398438 C 34.953125 25.398438 32.414062 25.550781 31.796875 25.785156 C 30.488281 26.328125 13.929688 39.136719 11.851562 55.589844 C 11.3125 59.703125 12.160156 62.964844 14.238281 65.371094 C 18.011719 69.71875 24.789062 69.71875 24.867188 69.71875 L 49.972656 69.71875 C 50.046875 69.71875 56.824219 69.640625 60.597656 65.371094 C 62.679688 62.964844 63.449219 59.703125 62.988281 55.589844 Z M 42.5 45.1875 C 43.039062 45.1875 43.347656 45.578125 43.347656 46.042969 C 43.347656 46.507812 42.964844 46.820312 42.5 46.820312 L 31.566406 46.820312 C 31.410156 47.441406 31.410156 48.0625 31.410156 48.683594 C 31.410156 49.304688 31.488281 49.925781 31.566406 50.546875 L 42.578125 50.546875 C 43.117188 50.546875 43.503906 51.011719 43.503906 51.476562 C 43.503906 52.019531 43.039062 52.40625 42.578125 52.40625 L 32.105469 52.40625 C 33.414062 55.746094 36.570312 57.917969 40.113281 57.996094 C 41.421875 57.996094 42.65625 57.6875 43.8125 57.144531 C 44.273438 56.910156 44.890625 57.066406 45.121094 57.609375 C 45.351562 58.074219 45.195312 58.695312 44.65625 58.929688 C 43.273438 59.625 41.652344 60.015625 40.113281 60.015625 C 35.570312 59.9375 31.566406 56.910156 30.101562 52.5625 L 27.023438 52.5625 C 26.484375 52.5625 26.097656 52.097656 26.097656 51.632812 C 26.097656 51.089844 26.558594 50.699219 27.023438 50.699219 L 29.5625 50.699219 C 29.332031 49.457031 29.332031 48.214844 29.5625 46.976562 L 26.945312 46.976562 C 26.40625 46.976562 26.019531 46.507812 26.019531 46.042969 C 26.019531 45.578125 26.484375 45.113281 26.945312 45.113281 L 30.027344 45.113281 C 31.488281 40.765625 35.492188 37.738281 40.035156 37.660156 C 41.652344 37.660156 43.273438 38.046875 44.65625 38.824219 C 45.121094 39.058594 45.351562 39.679688 45.121094 40.144531 C 44.890625 40.609375 44.273438 40.84375 43.8125 40.609375 C 42.65625 39.988281 41.347656 39.679688 40.035156 39.679688 C 36.496094 39.757812 33.414062 41.851562 32.027344 45.113281 Z M 42.5 45.1875"/></g></svg>