<svg xmlns="http://www.w3.org/2000/svg" width="75" viewBox="0 0 75 75" height="75" version="1.0"><defs><clipPath id="a"><path d="M 9.375 9.375 L 65.625 9.375 L 65.625 65.625 L 9.375 65.625 Z M 9.375 9.375"/></clipPath></defs><g clip-path="url(#a)"><path d="M 52.511719 34.363281 L 52.511719 35.539062 L 50.265625 35.539062 C 48.921875 35.539062 47.582031 35.289062 46.355469 34.730469 C 45.675781 34.421875 45.042969 34.035156 44.476562 33.578125 L 44.476562 43.742188 C 44.34375 51.675781 39.054688 55.179688 32.617188 54.683594 C 27.21875 54.269531 22.867188 49.882812 22.511719 44.476562 C 22.089844 38.09375 27.160156 32.765625 33.457031 32.765625 C 33.664062 32.765625 33.84375 32.777344 34.015625 32.789062 L 34.296875 32.8125 L 34.296875 40.066406 L 33.90625 40.015625 C 33.847656 40.007812 33.8125 40.003906 33.753906 39.996094 C 33.640625 39.976562 33.539062 39.96875 33.46875 39.96875 C 31.285156 39.96875 29.527344 41.839844 29.699219 44.058594 C 29.855469 46.078125 31.640625 47.644531 33.664062 47.550781 C 35.734375 47.453125 37.449219 45.820312 37.449219 43.867188 L 37.5 20.269531 L 44.394531 20.269531 L 44.53125 21.289062 C 44.90625 24.84375 47.785156 27.550781 51.351562 27.808594 L 52.511719 27.890625 Z M 37.5 9.375 C 21.96875 9.375 9.375 21.96875 9.375 37.5 C 9.375 53.03125 21.96875 65.625 37.5 65.625 C 53.03125 65.625 65.625 53.03125 65.625 37.5 C 65.625 21.96875 53.03125 9.375 37.5 9.375"/></g></svg>