<svg xmlns="http://www.w3.org/2000/svg" width="75" viewBox="0 0 75 75" height="75" version="1.0"><defs><clipPath id="a"><path d="M 9.582031 14.507812 L 65 14.507812 L 65 60.222656 L 9.582031 60.222656 Z M 9.582031 14.507812"/></clipPath></defs><g clip-path="url(#a)"><path fill="#100F0D" d="M 57.558594 26.101562 C 57.308594 26.335938 57.175781 26.667969 57.195312 27.007812 C 57.199219 27.070312 57.578125 33.175781 54.855469 39.976562 C 51.21875 49.066406 44.046875 54.933594 33.566406 57.417969 C 33.453125 57.441406 23.757812 59.445312 15.246094 55.402344 C 18.882812 55.25 23.921875 54.226562 27.46875 50.246094 C 27.765625 49.914062 27.835938 49.402344 27.652344 48.996094 C 27.472656 48.59375 27.066406 48.292969 26.625 48.292969 C 26.621094 48.292969 26.617188 48.292969 26.617188 48.292969 C 26.316406 48.292969 21.183594 48.257812 18.722656 43.300781 C 19.71875 43.34375 20.90625 43.285156 21.867188 42.84375 C 22.308594 42.640625 22.570312 42.1875 22.515625 41.703125 C 22.460938 41.222656 22.101562 40.832031 21.625 40.734375 C 21.351562 40.675781 15.40625 39.347656 14.488281 32.894531 C 15.402344 33.277344 16.542969 33.570312 17.671875 33.402344 C 18.109375 33.335938 18.464844 33.023438 18.589844 32.601562 C 18.710938 32.179688 18.578125 31.726562 18.246094 31.4375 C 17.988281 31.210938 12.382812 26.230469 14.949219 19.792969 C 17.988281 22.957031 26.652344 30.832031 37.160156 30.230469 C 37.496094 30.210938 37.804688 30.042969 38.003906 29.769531 C 38.203125 29.5 38.269531 29.15625 38.1875 28.832031 C 37.988281 28.042969 37.886719 27.226562 37.886719 26.414062 C 37.886719 21.070312 42.167969 16.722656 47.429688 16.722656 C 50 16.722656 52.414062 17.75 54.222656 19.613281 C 54.429688 19.828125 54.714844 19.949219 55.011719 19.957031 C 56.054688 19.964844 57.769531 19.855469 59.710938 19.132812 C 59.132812 19.808594 58.324219 20.601562 57.191406 21.488281 C 56.800781 21.796875 56.65625 22.324219 56.839844 22.785156 C 57.019531 23.25 57.492188 23.542969 57.980469 23.5 C 58.207031 23.480469 59.3125 23.382812 60.605469 23.121094 C 59.863281 23.910156 58.875 24.890625 57.558594 26.101562 Z M 64.476562 19.8125 C 64.078125 19.539062 63.550781 19.554688 63.164062 19.847656 C 62.773438 20.140625 62.140625 20.394531 61.421875 20.601562 C 63.390625 18.304688 63.433594 16.769531 63.410156 16.410156 C 63.382812 16 63.136719 15.636719 62.761719 15.460938 C 62.390625 15.285156 61.953125 15.328125 61.621094 15.570312 C 59.257812 17.285156 56.90625 17.65625 55.492188 17.699219 C 53.296875 15.613281 50.453125 14.472656 47.429688 14.472656 C 40.925781 14.472656 35.632812 19.828125 35.632812 26.414062 C 35.632812 26.945312 35.667969 27.476562 35.738281 28.003906 C 24.636719 27.816406 15.625 17.195312 15.53125 17.085938 C 15.296875 16.804688 14.9375 16.648438 14.566406 16.683594 C 14.203125 16.71875 13.871094 16.925781 13.6875 17.246094 C 10.558594 22.671875 12.472656 27.457031 14.390625 30.328125 C 14.191406 30.207031 14.03125 30.101562 13.917969 30.019531 C 13.578125 29.765625 13.128906 29.726562 12.75 29.910156 C 12.367188 30.097656 12.125 30.480469 12.117188 30.902344 C 12.03125 36.105469 14.464844 39.152344 16.832031 40.875 C 16.574219 40.910156 16.335938 41.035156 16.15625 41.230469 C 15.882812 41.523438 15.789062 41.9375 15.90625 42.320312 C 17.542969 47.683594 21.519531 49.582031 24.144531 50.257812 C 18.835938 54.261719 11.136719 52.953125 11.050781 52.9375 C 10.542969 52.847656 10.03125 53.117188 9.820312 53.59375 C 9.613281 54.070312 9.753906 54.625 10.167969 54.941406 C 15.832031 59.257812 22.601562 60.214844 27.492188 60.214844 C 31.1875 60.214844 33.8125 59.667969 34.0625 59.613281 C 58.730469 53.773438 59.515625 31.25 59.464844 27.410156 C 64.089844 23.105469 64.820312 21.453125 64.933594 21.042969 C 65.0625 20.578125 64.878906 20.082031 64.476562 19.8125"/></g></svg>