<svg xmlns="http://www.w3.org/2000/svg" width="75" viewBox="0 0 75 75" height="75" version="1.0"><defs><clipPath id="a"><path d="M 8.175781 7.5 L 66.675781 7.5 L 66.675781 66 L 8.175781 66 Z M 8.175781 7.5"/></clipPath></defs><g clip-path="url(#a)"><path fill="#FFF" d="M 66.597656 35.210938 C 66.285156 29.199219 64.167969 23.675781 60.761719 19.167969 C 60.136719 18.339844 59.472656 17.550781 58.769531 16.792969 C 53.757812 11.4375 46.773438 7.988281 38.964844 7.578125 C 38.453125 7.554688 37.945312 7.5 37.425781 7.5 C 36.90625 7.5 36.398438 7.554688 35.886719 7.578125 C 28.078125 7.988281 21.089844 11.4375 16.082031 16.792969 C 15.375 17.550781 14.714844 18.34375 14.085938 19.167969 C 10.679688 23.675781 8.566406 29.199219 8.253906 35.210938 C 8.226562 35.722656 8.175781 36.234375 8.175781 36.75 C 8.175781 37.273438 8.226562 37.777344 8.253906 38.289062 C 8.566406 44.300781 10.679688 49.824219 14.085938 54.332031 C 14.710938 55.164062 15.375 55.949219 16.082031 56.707031 C 21.089844 62.0625 28.078125 65.511719 35.886719 65.921875 C 36.398438 65.949219 36.90625 66 37.425781 66 C 37.945312 66 38.453125 65.949219 38.964844 65.921875 C 46.773438 65.511719 53.757812 62.0625 58.769531 56.710938 C 59.472656 55.953125 60.136719 55.164062 60.761719 54.335938 C 64.164062 49.828125 66.285156 44.304688 66.597656 38.292969 C 66.621094 37.777344 66.675781 37.273438 66.675781 36.75 C 66.675781 36.234375 66.621094 35.722656 66.597656 35.210938 Z M 63.519531 35.210938 L 55.851562 35.210938 C 55.695312 30.507812 54.84375 26.101562 53.441406 22.234375 C 55.054688 21.753906 56.570312 21.199219 57.964844 20.578125 C 61.179688 24.65625 63.195312 29.707031 63.519531 35.210938 Z M 50.5 50.492188 C 46.984375 49.683594 43.097656 49.203125 38.964844 49.101562 L 38.964844 38.289062 L 52.773438 38.289062 C 52.621094 42.75 51.8125 46.90625 50.5 50.492188 Z M 22.078125 38.289062 L 35.886719 38.289062 L 35.886719 49.101562 C 31.753906 49.203125 27.863281 49.683594 24.347656 50.492188 C 23.035156 46.90625 22.226562 42.75 22.078125 38.289062 Z M 24.347656 23.007812 C 27.863281 23.816406 31.753906 24.300781 35.886719 24.398438 L 35.886719 35.210938 L 22.078125 35.210938 C 22.226562 30.753906 23.035156 26.597656 24.347656 23.007812 Z M 38.964844 10.710938 C 43.113281 11.417969 46.777344 14.925781 49.296875 20.113281 C 46.117188 20.800781 42.625 21.222656 38.964844 21.316406 Z M 35.886719 10.710938 L 35.886719 21.316406 C 32.222656 21.222656 28.734375 20.800781 25.550781 20.113281 C 28.070312 14.925781 31.738281 11.414062 35.886719 10.710938 Z M 35.886719 52.183594 L 35.886719 62.789062 C 31.738281 62.082031 28.070312 58.574219 25.550781 53.394531 C 28.734375 52.707031 32.222656 52.277344 35.886719 52.183594 Z M 38.964844 62.789062 L 38.964844 52.183594 C 42.625 52.277344 46.117188 52.707031 49.296875 53.398438 C 46.777344 58.574219 43.113281 62.085938 38.964844 62.789062 Z M 38.964844 35.210938 L 38.964844 24.398438 C 43.097656 24.300781 46.984375 23.816406 50.5 23.007812 C 51.8125 26.597656 52.621094 30.753906 52.773438 35.210938 Z M 55.808594 18.148438 C 54.695312 18.59375 53.507812 19.003906 52.25 19.371094 C 51.070312 16.855469 49.65625 14.65625 48.042969 12.851562 C 50.945312 14.144531 53.574219 15.941406 55.808594 18.148438 Z M 26.808594 12.851562 C 25.191406 14.65625 23.777344 16.855469 22.601562 19.371094 C 21.339844 19.003906 20.160156 18.59375 19.039062 18.148438 C 21.277344 15.941406 23.90625 14.144531 26.808594 12.851562 Z M 16.886719 20.578125 C 18.28125 21.199219 19.796875 21.753906 21.410156 22.234375 C 20.007812 26.101562 19.15625 30.507812 19 35.210938 L 11.335938 35.210938 C 11.652344 29.707031 13.671875 24.65625 16.886719 20.578125 Z M 11.332031 38.289062 L 18.996094 38.289062 C 19.15625 42.992188 20.003906 47.40625 21.410156 51.265625 C 19.796875 51.746094 18.28125 52.300781 16.886719 52.921875 C 13.671875 48.84375 11.652344 43.796875 11.332031 38.289062 Z M 19.039062 55.351562 C 20.15625 54.902344 21.339844 54.496094 22.601562 54.132812 C 23.777344 56.640625 25.191406 58.847656 26.804688 60.644531 C 23.90625 59.355469 21.277344 57.558594 19.039062 55.351562 Z M 48.042969 60.648438 C 49.65625 58.851562 51.066406 56.644531 52.246094 54.136719 C 53.507812 54.496094 54.691406 54.90625 55.804688 55.351562 C 53.574219 57.558594 50.945312 59.355469 48.042969 60.648438 Z M 57.960938 52.921875 C 56.566406 52.300781 55.054688 51.746094 53.4375 51.265625 C 54.84375 47.40625 55.691406 42.992188 55.847656 38.289062 L 63.515625 38.289062 C 63.195312 43.796875 61.179688 48.84375 57.960938 52.921875 Z M 57.960938 52.921875"/></g></svg>