<svg xmlns="http://www.w3.org/2000/svg" width="75" viewBox="0 0 75 75" height="75" version="1.0"><defs><clipPath id="a"><path d="M 11.25 11.25 L 63.75 11.25 L 63.75 63.75 L 11.25 63.75 Z M 11.25 11.25"/></clipPath></defs><path d="M 34.230469 42.417969 L 42.769531 37.5 L 34.230469 32.582031 Z M 34.230469 42.417969"/><g clip-path="url(#a)"><path d="M 37.5 11.25 C 23.003906 11.25 11.25 23.003906 11.25 37.5 C 11.25 51.996094 23.003906 63.75 37.5 63.75 C 51.996094 63.75 63.75 51.996094 63.75 37.5 C 63.75 23.003906 51.996094 11.25 37.5 11.25 Z M 53.902344 37.527344 C 53.902344 37.527344 53.902344 42.851562 53.226562 45.417969 C 52.847656 46.824219 51.742188 47.929688 50.335938 48.308594 C 47.769531 48.984375 37.5 48.984375 37.5 48.984375 C 37.5 48.984375 27.257812 48.984375 24.664062 48.28125 C 23.257812 47.902344 22.152344 46.796875 21.773438 45.390625 C 21.097656 42.851562 21.097656 37.5 21.097656 37.5 C 21.097656 37.5 21.097656 32.175781 21.773438 29.609375 C 22.152344 28.203125 23.285156 27.070312 24.664062 26.691406 C 27.230469 26.015625 37.5 26.015625 37.5 26.015625 C 37.5 26.015625 47.769531 26.015625 50.335938 26.71875 C 51.742188 27.097656 52.847656 28.203125 53.226562 29.609375 C 53.929688 32.175781 53.902344 37.527344 53.902344 37.527344 Z M 53.902344 37.527344"/></g></svg>